<svg preserveAspectRatio="xMidYMid meet" viewBox="215.04 307.2 591.872 403.456" xmlns="http://www.w3.org/2000/svg" version="1.0" style="max-height: 500px" width="591.872" height="403.456">

<g stroke="none" fill="#000000" transform="translate(0.000000,1024.000000) scale(0.100000,-0.100000)">
<path d="M6857 6878 c-14 -24 -75 -143 -136 -266 l-111 -223 141 3 c114 2 144&#10;6 150 18 23 40 259 502 259 506 0 2 -63 4 -139 4 l-139 0 -25 -42z"/>
<path d="M2420 6248 c30 -28 77 -68 103 -89 27 -21 80 -68 119 -103 l70 -64&#10;-11 -53 c-5 -30 -33 -173 -61 -319 -28 -146 -69 -355 -90 -465 -50 -258 -125&#10;-656 -145 -767 -8 -49 -22 -127 -31 -174 -8 -48 -13 -88 -11 -90 2 -3 65 62&#10;139 143 75 81 199 216 276 298 77 83 139 151 138 152 -1 1 -27 3 -59 4 -32 1&#10;-60 5 -62 8 -3 6 12 86 139 741 30 157 66 341 78 410 l23 125 198 3 c108 1&#10;197 1 197 -1 0 -2 -16 -82 -35 -177 -19 -95 -35 -174 -35 -175 0 -4 -40 -18&#10;-188 -71 -73 -25 -135 -51 -138 -56 -4 -5 -16 -68 -29 -140 l-23 -129 40 3 41&#10;2 63 -234 c35 -129 68 -252 74 -272 l11 -38 169 0 c94 0 170 3 170 8 0 4 -9&#10;35 -20 69 -27 88 -150 537 -150 550 0 6 60 34 134 63 l133 52 31 146 c16 81&#10;47 233 68 338 l38 190 -58 82 -57 82 -652 0 -652 -1 55 -51z"/>
<path d="M4048 6220 l-96 -80 -17 -73 c-15 -65 -44 -210 -181 -909 -24 -125&#10;-45 -238 -46 -251 -1 -15 20 -52 60 -105 l63 -82 355 0 356 0 72 63 c40 35 83&#10;71 96 80 21 14 29 42 62 199 33 161 172 862 203 1023 l11 60 -60 77 -59 78&#10;-361 0 -362 0 -96 -80z m582 -232 c0 -13 -5 -41 -10 -64 -5 -22 -48 -235 -94&#10;-474 -47 -238 -87 -434 -88 -435 -2 0 -90 1 -196 3 -173 4 -192 6 -188 21 3 9&#10;12 52 20 96 36 192 167 851 171 863 3 9 51 12 195 12 l190 0 0 -22z"/>
<path d="M5258 6227 c-48 -40 -92 -77 -97 -82 -8 -8 -89 -393 -115 -546 l-6&#10;-36 102 -46 c57 -26 193 -87 303 -136 156 -70 200 -94 199 -108 -1 -19 -31&#10;-193 -39 -230 -5 -23 -7 -23 -180 -23 l-175 0 5 23 c14 59 45 221 45 234 0 16&#10;-16 5 -235 -151 -77 -54 -141 -100 -142 -100 -2 -1 -50 -222 -59 -269 l-6 -37&#10;323 2 324 3 53 100 c29 55 84 156 122 225 181 333 240 442 240 449 0 8 -239&#10;122 -420 201 -52 23 -96 43 -97 44 -2 2 8 59 22 127 14 68 25 127 25 132 0 4&#10;79 7 175 7 96 0 175 -4 175 -9 0 -4 -11 -64 -25 -131 -14 -68 -23 -125 -21&#10;-127 4 -4 386 263 386 270 0 1 11 60 25 132 14 71 25 135 25 142 0 10 -83 13&#10;-422 12 l-423 0 -87 -72z"/>
<path d="M6429 6220 c-51 -45 -97 -90 -102 -102 -4 -11 -27 -124 -52 -252 -24&#10;-127 -47 -245 -50 -262 -8 -36 -32 -22 285 -164 96 -43 209 -94 252 -113 l76&#10;-36 -19 -88 c-11 -48 -24 -107 -28 -131 -5 -24 -10 -44 -12 -46 -10 -8 -338&#10;-16 -343 -8 -3 5 8 66 24 137 17 71 29 130 27 131 -3 4 -268 -184 -295 -209&#10;-19 -18 -192 -334 -192 -351 0 -3 199 -6 442 -6 l441 0 95 77 c52 42 98 86&#10;103 97 8 18 98 439 116 543 5 31 3 33 -48 56 -30 14 -166 75 -304 136 -137 61&#10;-252 115 -256 119 -3 4 6 64 19 134 l25 127 35 3 c35 3 38 7 109 137 40 73 73&#10;137 73 142 0 5 -73 9 -163 9 l-163 0 -95 -80z"/>
<path d="M6891 6158 l-81 -143 85 -3 c56 -2 85 -7 85 -14 0 -7 -12 -65 -26&#10;-130 -15 -65 -24 -121 -21 -124 6 -6 367 246 384 268 9 11 64 256 63 281 0 4&#10;-92 7 -204 7 l-205 0 -80 -142z"/>
<path d="M7560 6293 c0 -5 -23 -105 -50 -223 -28 -118 -67 -287 -86 -375 -19&#10;-88 -50 -230 -69 -315 -19 -85 -48 -211 -64 -280 -31 -128 -81 -359 -81 -372&#10;0 -5 73 -8 163 -8 l162 0 37 173 c21 94 53 240 72 322 18 83 48 211 64 285 17&#10;74 45 196 61 270 54 243 111 495 117 513 5 16 -7 17 -160 17 -91 0 -166 -3&#10;-166 -7z"/>
<path d="M6029 5492 c-82 -152 -517 -942 -643 -1166 -68 -121 -173 -248 -280&#10;-338 -87 -73 -139 -98 -223 -106 l-68 -7 -43 -145 c-54 -184 -92 -318 -92&#10;-323 0 -2 42 3 93 10 50 7 162 22 247 33 85 12 170 29 189 38 30 14 47 40 116&#10;172 44 85 123 234 174 330 52 96 138 258 191 360 117 223 318 600 407 765 36&#10;66 89 165 119 220 30 55 53 104 50 110 -3 9 -191 95 -206 95 -3 0 -16 -22 -31&#10;-48z"/>
<path d="M4685 4406 c-87 -17 -153 -46 -184 -80 -24 -26 -25 -28 -14 -104 17&#10;-113 25 -130 80 -155 41 -19 66 -22 168 -22 101 0 131 4 189 24 39 13 85 38&#10;105 56 l35 33 -11 88 c-10 79 -14 91 -41 115 -17 15 -48 33 -69 39 -63 18&#10;-183 20 -258 6z m325 -136 c-39 -72 -261 -121 -409 -89 -44 9 -108 45 -99 55&#10;2 2 26 -3 53 -11 106 -32 317 -12 415 40 25 13 46 24 48 24 1 1 -2 -8 -8 -19z"/>
<path d="M3949 3866 c-62 -22 -97 -54 -128 -119 -39 -81 -76 -234 -67 -280 17&#10;-90 96 -146 208 -147 l67 0 16 58 c9 31 47 154 86 274 38 119 69 219 69 222 0&#10;12 -215 5 -251 -8z"/>
<path d="M4246 3728 c-26 -84 -63 -204 -83 -266 -20 -62 -33 -115 -30 -118 3&#10;-4 40 -3 81 1 l75 7 85 151 c151 272 160 287 163 284 2 -3 -72 -245 -112 -366&#10;l-15 -44 83 8 c45 4 84 9 86 11 2 2 17 47 33 101 71 241 108 369 108 376 0 4&#10;-96 7 -213 7 l-214 0 -47 -152z"/>
</g>
</svg>